<?xml version="1.0" encoding="utf-8"?>
<!-- Generator: Adobe Illustrator 25.0.1, SVG Export Plug-In . SVG Version: 6.00 Build 0)  -->
<svg version="1.1" id="Layer_1" xmlns="http://www.w3.org/2000/svg" xmlns:xlink="http://www.w3.org/1999/xlink" x="0px" y="0px"
	 viewBox="0 0 423.48 508.35" style="enable-background:new 0 0 423.48 508.35;" xml:space="preserve">
<style type="text/css">
	.st0{fill:#FFFFFF;}
	.st1{fill:#6DB0E0;}
	.st2{fill-rule:evenodd;clip-rule:evenodd;}
	.st3{fill-rule:evenodd;clip-rule:evenodd;fill:#FFFFFF;}
	.st4{fill-rule:evenodd;clip-rule:evenodd;fill:#6DB0E0;}
</style>
<g>
	<g>
		<g>
			<path d="M350.38,339.65c7.03-1.03,13.88-2.96,20.46-5.76c7.82-3.32,15.1-7.8,21.63-13.31c0.2-0.16,0.39-0.33,0.58-0.5l4.64-4.23
				c0.28-0.25,0.55-0.52,0.82-0.79c7.95-8.1,14.16-17.54,18.45-28.05c4.29-10.53,6.46-21.6,6.46-32.93l0.07-218.85
				c0-14.16-7.07-25.59-19.41-31.37c-7.19-3.35-14.48-3.83-20.04-3.87l-0.95,0c-6.25,0-13.62,0.45-20.92,3.85
				c-12.38,5.78-19.47,17.21-19.47,31.38l-0.03,86.14c-27.72-25.97-64.57-41.18-103.71-41.51c-84.66-0.71-154.12,67.6-154.82,152.26
				c-0.14,16.33,2.33,33.3,6.68,47.14c-2.99,1.28-6.27,2.15-9.63,2.12l-0.25,0c-5.56-0.12-10.94-2.62-16.47-7.65
				c-9.87-8.99-13.25-22.04-15.97-32.53l-1.09-4.2c-1.98-7.66-8.22-13.47-16-14.91c-1.17-0.22-2.35-0.33-3.52-0.34
				c-6.57-0.05-12.86,3.08-16.75,8.56c-10.99,15.46-14.01,37.41-8.31,60.22c3.53,14.17,10.19,27.73,19.26,39.2
				c9.96,12.56,22.37,21.92,35.91,27.09c1.86,0.71,3.75,1.35,5.65,1.9c-1.1,0.04-2.21,0.06-3.35,0.05c-10.06-0.08-19.56-2.25-27.2-4
				c-3-0.69-5.68-1.3-7.8-1.73c-1.3-0.26-2.6-0.4-3.89-0.41c-6.63-0.06-12.97,3.14-16.85,8.71c-4.3,6.16-4.82,14.14-1.49,20.77
				c6.11,13.15,19,24.33,37.37,32.38c16.07,7.03,35.48,11.18,54.68,11.69c0.94,0.02,1.9,0.04,2.85,0.05
				c20,0.17,39.04-3.58,55.05-10.84c5.63-2.55,10.88-5.54,15.71-8.92c1.18,5.9,2.94,11.81,5.3,17.67
				c6.92,17.19,18.8,33.86,34.34,48.21c14.23,13.1,31.06,23.71,47.42,29.87c10.6,4.01,20.67,6.08,29.91,6.16
				c6.98,0.06,13.44-1.04,19.22-3.25c6.79-2.31,11.94-8.09,13.38-15.27c1.64-8.2-1.91-16.56-8.94-21.08
				c-1.73-1.11-3.98-2.5-6.82-4.24c-7.42-4.53-16.68-10.19-24.57-18.38c1.51,0.78,2.99,1.47,4.43,2.09
				c9.67,4.18,20.24,6.35,31.42,6.44c4.32,0.04,8.73-0.24,13.12-0.84c14.38-1.92,28.51-7.06,40.84-14.88
				c19.79-12.55,32.6-30.59,35.17-49.49c1.06-7.81-2.49-15.53-9.1-19.81c-3.31-2.14-7.09-3.23-10.88-3.26
				c-3.79-0.03-7.58,0.99-10.92,3.07l-3.63,2.26c-8.84,5.52-19.8,12.36-32.51,12.25c-0.29,0-0.58-0.01-0.87-0.02
				c-7.4-0.25-13-2.23-17.11-6.07c-2.8-2.6-4.75-5.94-6.11-9.33C326.12,361.38,339.2,351.58,350.38,339.65z"/>
			<path class="st4" d="M379.53,388.91c-10.24,6.39-25.53,15.94-44.81,15.3c-13.18-0.44-23.08-4.78-30.31-11.52
				c-8.27-7.7-12.85-18.41-14.78-29.88c-0.85-4.64-0.62-6.46,2.19-7.62c48.24-17.88,78.98-66.72,79.43-120.75
				c0.61-73.57-58.52-133.7-132.09-134.32c-73.57-0.61-133.7,58.52-134.32,132.09c-0.15,17.93,3.36,37.95,9.57,50.73
				c2.54,4.56,0.06,5.5-2.21,7.23c-9.27,7.08-19.97,11.71-31.35,11.47c-9.8-0.21-19.91-4.02-29.72-12.95
				C36.79,275.62,32.23,258,29.17,246.21l-1.09-4.2c-7.95,11.2-9.18,27.41-5.16,43.5c2.78,11.15,8.12,22.21,15.48,31.52
				c7.27,9.17,16.51,16.62,27.21,20.71c14.34,5.48,31.61,4.94,50.64-5.55c1.52-0.92,3.4-1.18,5.2-0.54c3.2,1.14,4.91,4.72,3.79,7.98
				c-2.72,8.02-7.35,15.49-14.31,21.82c-6.17,5.62-14.19,10.31-24.39,13.67c-22.52,7.41-43.64,2.59-57.6-0.6
				c-2.93-0.67-5.47-1.25-7.34-1.63l0.07,0.11c3.97,9.03,14.03,16.97,27.3,22.78c13.48,5.9,30.09,9.54,47.06,9.98
				c16.91,0.45,34.13-2.26,48.97-8.99c15.17-6.87,27.87-18.05,34.98-34.46l0.1-0.27c1.29-3.23,4.88-4.79,8.05-3.5l0.01,0.01
				l0.02,0.01l0,0.02c3.08,1.26,4.64,4.81,3.48,8c-6.22,16.98-4.71,34.1,1.63,49.87c6.14,15.26,16.76,29.31,29.27,40.85
				c12.57,11.58,27.02,20.59,40.8,25.79c13.55,5.12,26.22,6.46,35.26,2.7l0.12-0.02c-1.6-1.03-3.83-2.4-6.41-3.98
				c-12.28-7.5-30.81-18.83-42.03-39.98c-5.07-9.57-7.69-18.59-8.32-26.98c-0.73-9.47,1.03-18.1,4.52-25.82l0,0.01
				c0.69-1.56,2.02-2.82,3.75-3.37c3.25-1.04,6.7,0.78,7.75,4.07c6.57,21.05,18.72,33.64,32.86,39.76
				c10.51,4.54,22.25,5.66,33.75,4.11c11.66-1.55,23.05-5.8,32.66-11.9c13.86-8.8,24.05-21.37,25.91-35.05L379.53,388.91z"/>
			<path d="M400.2,235.48c-0.87,15.74-5.73,26.53-10.6,33.64c-0.87,1.29-1.77,2.47-2.62,3.53c-0.85,1.06-1.69,2.01-2.48,2.87
				c-0.38,0.43-0.77,0.81-1.13,1.18l-0.03,0c-5.19,5.23-10.58,9.07-15.88,11.84c-0.94,0.52-1.89,0.97-2.85,1.42
				c-2.14,0.97-4.25,1.79-6.31,2.43c-0.03,0.03-0.03,0.03-0.03,0.03c-6.79,2.2-13.19,2.93-18.67,2.91c0,0-0.7,7.89-4.18,13.72
				c-3.3,5.54-8.89,10.42-8.89,10.42l14.72,0.12c0,0-1.55,2.14-3.95,4.78c-2.72,3.07-5.04,5.05-5.04,5.05l-59.77-0.36
				c-19.58-0.01-35.75-16.51-35.76-36.47l0-2.59c-9.88,2.77-38.49,1.58-38.49,1.58c-16.71,0.01-31.87-6.91-42.84-18.11l-0.03-0.03
				c-10.97-11.18-17.76-26.63-17.77-43.65c0.02-17.02,6.79-32.48,17.79-43.65l0-0.03l0.03,0c10.97-11.17,26.12-18.07,42.84-18.08
				l82.89,0.01l58.18,0.06c5.58,0,10.98,0.75,16.09,2.21c2.73,0.76,5.39,1.69,7.97,2.83l0-0.25c0,0,0,0,0.03,0.03
				c0.71,0.31,9.17,4.13,17.83,12.6C391.27,195.33,401.54,211.39,400.2,235.48z"/>
			<path class="st3" d="M268.98,230.56c0.02-2.61,1.28-5.65,2.9-7.41l0.01-0.02c1.91-2.06,4.46-3.07,7.03-3.07l0.17,0l0.05,0l0.05,0
				l0.19,0c2.57,0.05,5.07,1.12,6.93,3.2c1.6,1.79,2.81,4.77,2.79,7.47c-0.14,16.99,5.18,26.45,13.79,35.37
				c8.6,8.9,20.55,14.48,33.8,14.59c13.27,0.11,25.3-5.27,34.06-14.03c8.74-8.77,14.22-20.97,14.33-34.48
				c0.11-13.52-5.14-25.79-13.74-34.7c-8.62-8.95-20.58-14.53-33.83-14.64l-116.14-0.97c-13.22-0.11-25.29,5.27-34.03,14.05
				l-0.03,0.02c-8.74,8.76-14.19,20.94-14.3,34.46c-0.11,13.51,5.15,25.79,13.74,34.71c8.6,8.9,20.57,14.48,33.82,14.59
				c13.25,0.11,25.3-5.27,34.06-14.03C263.36,256.92,268.84,247.55,268.98,230.56z"/>
			<path class="st2" d="M356.83,216.64c7.42,0.06,13.39,6.27,13.33,13.87c-0.06,7.6-6.14,13.71-13.56,13.65
				c-7.41-0.06-13.39-6.27-13.33-13.87l13.44,0.11L356.83,216.64L356.83,216.64z"/>
			<path class="st2" d="M246.3,215.72c7.42,0.06,13.4,6.27,13.34,13.87c-0.06,7.6-6.14,13.71-13.57,13.65
				c-7.4-0.06-13.38-6.27-13.32-13.87l13.43,0.11L246.3,215.72L246.3,215.72z"/>
			<path class="st3" d="M287.64,274.16c12.38,0.1,22.33,9.09,22.24,20.06c-0.09,10.98-10.19,19.79-22.57,19.69
				c-12.37-0.1-22.33-9.09-22.23-20.06C265.17,282.88,275.27,274.06,287.64,274.16L287.64,274.16z"/>
			<path class="st1" d="M403.46,254.02c0,8.9-1.79,17.44-4.95,25.25c-3.31,8.11-8.17,15.4-14.13,21.49l-4.65,4.22
				c-4.93,4.17-10.49,7.6-16.47,10.13c-5.23,2.24-11.83,4.57-16.78,4.53c0,0-19.93-0.17-19.93-0.17c0.59-0.43,1.17-0.9,1.71-1.41
				c0.56-0.48,1.1-0.98,1.58-1.48c0.51-0.5,0.97-1.01,1.41-1.51c0.46-0.5,0.9-1.03,1.28-1.56l0-0.03c0.38-0.48,0.74-0.93,1.03-1.41
				c0.13-0.15,0.23-0.3,0.31-0.45c0.31-0.43,0.59-0.88,0.82-1.31c0.93-1.49,1.65-3,2.27-4.5c0.31-0.73,0.6-1.49,0.83-2.23
				c0.31-0.89,0.57-1.75,0.78-2.58c0.52-2.08,0.84-4,1.04-5.67c12.05,0.02,28.64-3.44,43.76-18.63
				c5.86-5.91,15.57-18.33,16.83-41.23c2.54-45.51-36.41-62.39-36.81-62.57l0.04-137.75c0.01-6.85,2.96-10.7,7.69-12.92
				c3.59-1.67,7.83-1.96,12.34-1.95c4.57-0.01,8.77,0.28,12.39,1.96c4.72,2.22,7.69,6.08,7.68,12.95L403.46,254.02z"/>
		</g>
		<path class="st3" d="M178.63,273.56l-0.03-0.01c-10.87-11.13-17.51-26.42-17.37-43.22c0.14-16.79,7.04-31.98,18.09-42.93
			l0.03-0.03c0.97-0.95,1.95-1.87,2.99-2.76c-7.2,2.34-13.65,6.34-18.9,11.54c-8.77,8.67-14.23,20.72-14.34,34.07
			c-0.11,13.34,5.16,25.48,13.75,34.28c5.16,5.28,11.52,9.37,18.66,11.83C180.52,275.43,179.55,274.51,178.63,273.56L178.63,273.56z
			"/>
	</g>
</g>
</svg>
